<svg width="28" height="28" viewBox="0 0 28 28" fill="none" xmlns="http://www.w3.org/2000/svg">
<path d="M24.5001 5.15784H22.1054V6.63152H24.3159V22.842H3.68432V6.63152H5.89485V5.15784H3.50011C3.32787 5.16072 3.15787 5.1975 2.99985 5.26608C2.84182 5.33467 2.69885 5.43372 2.57911 5.55757C2.45936 5.68142 2.36519 5.82764 2.30197 5.98789C2.23874 6.14814 2.20771 6.31928 2.21064 6.49152V22.982C2.20771 23.1543 2.23874 23.3254 2.30197 23.4857C2.36519 23.6459 2.45936 23.7922 2.57911 23.916C2.69885 24.0399 2.84182 24.1389 2.99985 24.2075C3.15787 24.2761 3.32787 24.3129 3.50011 24.3157H24.5001C24.6724 24.3129 24.8424 24.2761 25.0004 24.2075C25.1584 24.1389 25.3014 24.0399 25.4211 23.916C25.5409 23.7922 25.635 23.6459 25.6983 23.4857C25.7615 23.3254 25.7925 23.1543 25.7896 22.982V6.49152C25.7925 6.31928 25.7615 6.14814 25.6983 5.98789C25.635 5.82764 25.5409 5.68142 25.4211 5.55757C25.3014 5.43372 25.1584 5.33467 25.0004 5.26608C24.8424 5.1975 24.6724 5.16072 24.5001 5.15784Z" fill="black"/>
<path d="M6.63159 11.0525H8.10528V12.5262H6.63159V11.0525Z" fill="black"/>
<path d="M11.0527 11.0525H12.5264V12.5262H11.0527V11.0525Z" fill="black"/>
<path d="M15.4736 11.0525H16.9473V12.5262H15.4736V11.0525Z" fill="black"/>
<path d="M19.8948 11.0525H21.3685V12.5262H19.8948V11.0525Z" fill="black"/>
<path d="M6.63159 14.7368H8.10528V16.2105H6.63159V14.7368Z" fill="black"/>
<path d="M11.0527 14.7368H12.5264V16.2105H11.0527V14.7368Z" fill="black"/>
<path d="M15.4736 14.7368H16.9473V16.2105H15.4736V14.7368Z" fill="black"/>
<path d="M19.8948 14.7368H21.3685V16.2105H19.8948V14.7368Z" fill="black"/>
<path d="M6.63159 18.421H8.10528V19.8947H6.63159V18.421Z" fill="black"/>
<path d="M11.0527 18.421H12.5264V19.8947H11.0527V18.421Z" fill="black"/>
<path d="M15.4736 18.421H16.9473V19.8947H15.4736V18.421Z" fill="black"/>
<path d="M19.8948 18.421H21.3685V19.8947H19.8948V18.421Z" fill="black"/>
<path d="M8.10525 8.10531C8.30067 8.10531 8.48809 8.02768 8.62628 7.88949C8.76446 7.75131 8.84209 7.56389 8.84209 7.36847V2.94741C8.84209 2.75199 8.76446 2.56457 8.62628 2.42639C8.48809 2.2882 8.30067 2.21057 8.10525 2.21057C7.90983 2.21057 7.72241 2.2882 7.58422 2.42639C7.44604 2.56457 7.36841 2.75199 7.36841 2.94741V7.36847C7.36841 7.56389 7.44604 7.75131 7.58422 7.88949C7.72241 8.02768 7.90983 8.10531 8.10525 8.10531Z" fill="black"/>
<path d="M19.8948 8.10531C20.0902 8.10531 20.2776 8.02768 20.4158 7.88949C20.554 7.75131 20.6316 7.56389 20.6316 7.36847V2.94741C20.6316 2.75199 20.554 2.56457 20.4158 2.42639C20.2776 2.2882 20.0902 2.21057 19.8948 2.21057C19.6994 2.21057 19.512 2.2882 19.3738 2.42639C19.2356 2.56457 19.158 2.75199 19.158 2.94741V7.36847C19.158 7.56389 19.2356 7.75131 19.3738 7.88949C19.512 8.02768 19.6994 8.10531 19.8948 8.10531Z" fill="black"/>
<path d="M10.3157 5.15784H17.6841V6.63152H10.3157V5.15784Z" fill="black"/>
</svg>
