<svg width="180" height="165" viewBox="0 0 180 165" fill="none" xmlns="http://www.w3.org/2000/svg">
<ellipse cx="89.8082" cy="82.9589" rx="67.8082" ry="67.81" fill="#10217D"/>
<ellipse cx="21.5752" cy="9.9123" rx="10.4795" ry="9.9123" fill="#10217D"/>
<ellipse cx="173.219" cy="26.2381" rx="6.78082" ry="6.41384" fill="#10217D"/>
<ellipse cx="10.4796" cy="120.697" rx="5.54795" ry="5.24769" fill="#10217D"/>
<ellipse cx="61.6435" cy="160.929" rx="3.69863" ry="3.49846" fill="#10217D"/>
<ellipse cx="163.973" cy="100.29" rx="2.46575" ry="2.33231" fill="#10217D"/>
<ellipse cx="159.041" cy="145.769" rx="2.46575" ry="2.33231" fill="#10217D"/>
<ellipse cx="104.795" cy="8.16287" rx="2.46575" ry="2.33231" fill="#10217D"/>
<ellipse cx="1.23288" cy="68.8029" rx="1.23288" ry="1.16615" fill="#10217D"/>
<ellipse cx="119.589" cy="155.098" rx="2.46575" ry="2.33231" fill="#10217D"/>
<path d="M68.9736 49.8989C68.9736 48.9324 69.7394 48.1489 70.6842 48.1489C71.6289 48.1489 72.3947 48.9324 72.3947 49.8989V60.3989C72.3947 61.3655 71.6289 62.1489 70.6842 62.1489C69.7394 62.1489 68.9736 61.3655 68.9736 60.3989V49.8989Z" fill="white"/>
<path d="M96.3418 49.8989C96.3418 48.9324 97.1076 48.1489 98.0523 48.1489C98.997 48.1489 99.7628 48.9324 99.7628 49.8989V60.3989C99.7628 61.3655 98.997 62.1489 98.0523 62.1489C97.1076 62.1489 96.3418 61.3655 96.3418 60.3989V49.8989Z" fill="white"/>
<path fill-rule="evenodd" clip-rule="evenodd" d="M72.3948 81.3991H68.9738V84.8991H72.3948V81.3991ZM68.9738 77.899C67.0843 77.899 65.5527 79.466 65.5527 81.3991V84.8991C65.5527 86.8321 67.0843 88.3991 68.9738 88.3991H72.3948C74.2843 88.3991 75.8159 86.8321 75.8159 84.8991V81.3991C75.8159 79.466 74.2843 77.899 72.3948 77.899H68.9738Z" fill="white"/>
<path fill-rule="evenodd" clip-rule="evenodd" d="M86.0789 81.3991H82.6579V84.8991H86.0789V81.3991ZM82.6579 77.899C80.7684 77.899 79.2368 79.466 79.2368 81.3991V84.8991C79.2368 86.8321 80.7684 88.3991 82.6579 88.3991H86.0789C87.9683 88.3991 89.4999 86.8321 89.4999 84.8991V81.3991C89.4999 79.466 87.9683 77.899 86.0789 77.899H82.6579Z" fill="white"/>
<path fill-rule="evenodd" clip-rule="evenodd" d="M99.763 81.3991H96.3419V84.8991H99.763V81.3991ZM96.3419 77.899C94.4525 77.899 92.9209 79.466 92.9209 81.3991V84.8991C92.9209 86.8321 94.4525 88.3991 96.3419 88.3991H99.763C101.652 88.3991 103.184 86.8321 103.184 84.8991V81.3991C103.184 79.466 101.652 77.899 99.763 77.899H96.3419Z" fill="white"/>
<path fill-rule="evenodd" clip-rule="evenodd" d="M72.3948 95.3989H68.9738V98.8989H72.3948V95.3989ZM68.9738 91.8989C67.0843 91.8989 65.5527 93.4659 65.5527 95.3989V98.8989C65.5527 100.832 67.0843 102.399 68.9738 102.399H72.3948C74.2843 102.399 75.8159 100.832 75.8159 98.8989V95.3989C75.8159 93.4659 74.2843 91.8989 72.3948 91.8989H68.9738Z" fill="white"/>
<path fill-rule="evenodd" clip-rule="evenodd" d="M86.0789 95.3989H82.6579V98.8989H86.0789V95.3989ZM82.6579 91.8989C80.7684 91.8989 79.2368 93.4659 79.2368 95.3989V98.8989C79.2368 100.832 80.7684 102.399 82.6579 102.399H86.0789C87.9683 102.399 89.4999 100.832 89.4999 98.8989V95.3989C89.4999 93.4659 87.9683 91.8989 86.0789 91.8989H82.6579Z" fill="white"/>
<path fill-rule="evenodd" clip-rule="evenodd" d="M63.8421 58.6493H104.895C106.784 58.6493 108.316 60.2162 108.316 62.1493V90.1493C109.497 90.1493 110.643 90.3025 111.737 90.5903V62.1493C111.737 58.2833 108.673 55.1493 104.895 55.1493H63.8421C60.0633 55.1493 57 58.2833 57 62.1493V104.149C57 108.015 60.0633 111.149 63.8421 111.149H96.4622C95.8497 110.066 95.375 108.891 95.0625 107.649H63.8421C61.9527 107.649 60.421 106.082 60.421 104.149V62.1493C60.421 60.2162 61.9527 58.6493 63.8421 58.6493Z" fill="white"/>
<path fill-rule="evenodd" clip-rule="evenodd" d="M110.026 74.3987H58.71V70.8987H110.026V74.3987Z" fill="white"/>
<path fill-rule="evenodd" clip-rule="evenodd" d="M108.316 114.649C113.984 114.649 118.579 109.948 118.579 104.149C118.579 98.3501 113.984 93.6491 108.316 93.6491C102.648 93.6491 98.0529 98.3501 98.0529 104.149C98.0529 109.948 102.648 114.649 108.316 114.649ZM108.316 118.149C115.874 118.149 122 111.881 122 104.149C122 96.417 115.874 90.149 108.316 90.149C100.758 90.149 94.6318 96.417 94.6318 104.149C94.6318 111.881 100.758 118.149 108.316 118.149Z" fill="white"/>
<path d="M102 104.09L106.327 108.517L114.5 100.156" stroke="#FFECEC" stroke-width="1.15385" stroke-linecap="square"/>
</svg>
